<svg width="29" height="29" viewBox="0 0 29 29" fill="none" xmlns="http://www.w3.org/2000/svg">
<path d="M11.2278 5.18615C11.1153 5.2984 11.026 5.43174 10.9651 5.57854C10.9042 5.72534 10.8728 5.88272 10.8728 6.04165C10.8728 6.20059 10.9042 6.35797 10.9651 6.50477C11.026 6.65157 11.1153 6.78491 11.2278 6.89716L18.833 14.5L11.2278 22.1028C11.0009 22.3297 10.8734 22.6374 10.8734 22.9583C10.8734 23.2792 11.0009 23.5869 11.2278 23.8138C11.4547 24.0407 11.7624 24.1682 12.0833 24.1682C12.4042 24.1682 12.7119 24.0407 12.9388 23.8138L21.3971 15.3555C21.5097 15.2432 21.5989 15.1099 21.6599 14.9631C21.7208 14.8163 21.7521 14.6589 21.7521 14.5C21.7521 14.341 21.7208 14.1837 21.6599 14.0369C21.5989 13.8901 21.5097 13.7567 21.3971 13.6445L12.9388 5.18615C12.8266 5.07363 12.6932 4.98435 12.5464 4.92343C12.3996 4.86252 12.2422 4.83116 12.0833 4.83116C11.9244 4.83116 11.767 4.86252 11.6202 4.92343C11.4734 4.98435 11.34 5.07363 11.2278 5.18615Z" fill="white"/>
</svg>
